<?xml version="1.0" encoding="UTF-8" standalone="no"?>
<!DOCTYPE svg PUBLIC "-//W3C//DTD SVG 1.1//EN"
 "http://www.w3.org/Graphics/SVG/1.1/DTD/svg11.dtd">
<!-- Generated by graphviz version 16.0.0 (20260814.1018)
 -->
<!-- Pages: 1 -->
<svg width="347pt" height="402pt"
 viewBox="0.00 0.00 347.00 402.00" xmlns="http://www.w3.org/2000/svg" xmlns:xlink="http://www.w3.org/1999/xlink">
<g id="graph0" class="graph" transform="scale(1 1) rotate(0) translate(18 384.24)">
<!-- n0 -->
<g id="node&#45;0" class="node">
<title>n0</title>
<polygon fill="#ffffff" stroke="#a3afbf" stroke-width="1.3" points="219.99,-366.24 76.02,-366.24 76.02,-324.48 219.99,-324.48 219.99,-366.24"/>
<text xml:space="preserve" text-anchor="middle" x="148" y="-339.96" font-family="Arial" font-size="18.00">Parent runtime</text>
</g>
<!-- n1 -->
<g id="node&#45;1" class="node">
<title>n1</title>
<polygon fill="#ffffff" stroke="#a3afbf" stroke-width="1.3" points="152.01,-263.68 0,-263.68 0,-221.92 152.01,-221.92 152.01,-263.68"/>
<text xml:space="preserve" text-anchor="middle" x="76" y="-237.4" font-family="Arial" font-size="18.00">Scoped request</text>
</g>
<!-- n0&#45;&gt;n1 -->
<g id="edge&#45;0" class="edge">
<title>n0&#45;&gt;n1</title>
<path fill="none" stroke="#56657a" stroke-width="1.3" d="M111.38,-323.91C92.34,-313.28 73,-302.48 73,-302.48 73,-302.48 73,-285.68 73,-285.68 73,-285.68 73.36,-280.58 73.84,-273.93"/>
<polygon fill="#56657a" stroke="#56657a" stroke-width="1.3" points="76.62,-274.39 74.4,-266.21 71.03,-273.99 76.62,-274.39"/>
<text xml:space="preserve" text-anchor="middle" x="134.5" y="-289.88" font-family="Arial" font-size="14.00" fill="#43516a">bounded delegation</text>
</g>
<!-- n2 -->
<g id="node&#45;2" class="node">
<title>n2</title>
<polygon fill="#ffffff" stroke="#a3afbf" stroke-width="1.3" points="160,-144.32 18.01,-144.32 18.01,-102.56 160,-102.56 160,-144.32"/>
<text xml:space="preserve" text-anchor="middle" x="89" y="-118.04" font-family="Arial" font-size="18.00">Specialist loop</text>
</g>
<!-- n1&#45;&gt;n2 -->
<g id="edge&#45;1" class="edge">
<title>n1&#45;&gt;n2</title>
<path fill="none" stroke="#56657a" stroke-width="1.3" d="M74.84,-221.35C74.23,-210.72 73.62,-199.92 73.62,-199.92 73.62,-199.92 73.62,-166.32 73.62,-166.32 73.62,-166.32 75.58,-160.98 78.1,-154.12"/>
<polygon fill="#56657a" stroke="#56657a" stroke-width="1.3" points="80.68,-155.21 80.81,-146.74 75.43,-153.28 80.68,-155.21"/>
<text xml:space="preserve" text-anchor="middle" x="127.31" y="-178.92" font-family="Arial" font-size="14.00" fill="#43516a">permitted context</text>
</g>
<!-- n3 -->
<g id="node&#45;3" class="node">
<title>n3</title>
<polygon fill="#ffffff" stroke="#a3afbf" stroke-width="1.3" points="225,-41.76 85.01,-41.76 85.01,0 225,0 225,-41.76"/>
<text xml:space="preserve" text-anchor="middle" x="155" y="-15.48" font-family="Arial" font-size="18.00">Validate result</text>
</g>
<!-- n2&#45;&gt;n3 -->
<g id="edge&#45;2" class="edge">
<title>n2&#45;&gt;n3</title>
<path fill="none" stroke="#56657a" stroke-width="1.3" d="M92.96,-101.92C96.21,-84.99 100.3,-63.76 100.3,-63.76 100.3,-63.76 109.61,-56.63 120.55,-48.25"/>
<polygon fill="#56657a" stroke="#56657a" stroke-width="1.3" points="122.08,-50.61 126.73,-43.53 118.68,-46.17 122.08,-50.61"/>
<text xml:space="preserve" text-anchor="middle" x="148.15" y="-67.96" font-family="Arial" font-size="14.00" fill="#43516a">specialist result</text>
</g>
<!-- n3&#45;&gt;n0 -->
<g id="edge&#45;3" class="edge">
<title>n3&#45;&gt;n0</title>
<path fill="none" stroke="#56657a" stroke-width="1.3" d="M176.98,-42.33C188.4,-52.96 200,-63.76 200,-63.76 200,-63.76 200,-302.48 200,-302.48 200,-302.48 191.32,-309.47 181.05,-317.74"/>
<polygon fill="#56657a" stroke="#56657a" stroke-width="1.3" points="179.4,-315.48 174.93,-322.68 182.91,-319.84 179.4,-315.48"/>
<text xml:space="preserve" text-anchor="middle" x="255.65" y="-187.32" font-family="Arial" font-size="14.00" fill="#43516a">accepted result or</text>
<text xml:space="preserve" text-anchor="middle" x="255.65" y="-170.52" font-family="Arial" font-size="14.00" fill="#43516a">failure</text>
</g>
</g>
</svg>
