<?xml version="1.0" encoding="UTF-8" standalone="no"?>
<!DOCTYPE svg PUBLIC "-//W3C//DTD SVG 1.1//EN"
 "http://www.w3.org/Graphics/SVG/1.1/DTD/svg11.dtd">
<!-- Generated by graphviz version 16.0.0 (20260814.1018)
 -->
<!-- Pages: 1 -->
<svg width="456pt" height="488pt"
 viewBox="0.00 0.00 456.00 488.00" xmlns="http://www.w3.org/2000/svg" xmlns:xlink="http://www.w3.org/1999/xlink">
<g id="graph0" class="graph" transform="scale(1 1) rotate(0) translate(18 470)">
<!-- n0 -->
<g id="node&#45;0" class="node">
<title>n0</title>
<polygon fill="#ffffff" stroke="#a3afbf" stroke-width="1.3" points="247.49,-452 126.02,-452 126.02,-410.24 247.49,-410.24 247.49,-452"/>
<text xml:space="preserve" text-anchor="middle" x="186.75" y="-425.72" font-family="Arial" font-size="18.00">API + policy</text>
</g>
<!-- n1 -->
<g id="node&#45;1" class="node">
<title>n1</title>
<polygon fill="#ffffff" stroke="#a3afbf" stroke-width="1.3" points="262.01,-349.44 111.5,-349.44 111.5,-307.68 262.01,-307.68 262.01,-349.44"/>
<text xml:space="preserve" text-anchor="middle" x="186.75" y="-323.16" font-family="Arial" font-size="18.00">Router + queue</text>
</g>
<!-- n0&#45;&gt;n1 -->
<g id="edge&#45;0" class="edge">
<title>n0&#45;&gt;n1</title>
<path fill="none" stroke="#56657a" stroke-width="1.3" d="M186.75,-409.77C186.75,-395.32 186.75,-375.69 186.75,-359.46"/>
<polygon fill="#56657a" stroke="#56657a" stroke-width="1.3" points="189.55,-359.85 186.75,-351.85 183.95,-359.85 189.55,-359.85"/>
<text xml:space="preserve" text-anchor="middle" x="244.73" y="-375.64" font-family="Arial" font-size="14.00" fill="#43516a">authorized request</text>
</g>
<!-- n2 -->
<g id="node&#45;2" class="node">
<title>n2</title>
<polygon fill="#ffffff" stroke="#a3afbf" stroke-width="1.3" points="252.74,-246.88 120.77,-246.88 120.77,-205.12 252.74,-205.12 252.74,-246.88"/>
<text xml:space="preserve" text-anchor="middle" x="186.75" y="-220.6" font-family="Arial" font-size="18.00">Agent worker</text>
</g>
<!-- n1&#45;&gt;n2 -->
<g id="edge&#45;1" class="edge">
<title>n1&#45;&gt;n2</title>
<path fill="none" stroke="#56657a" stroke-width="1.3" d="M186.75,-307.21C186.75,-292.76 186.75,-273.13 186.75,-256.9"/>
<polygon fill="#56657a" stroke="#56657a" stroke-width="1.3" points="189.55,-257.29 186.75,-249.29 183.95,-257.29 189.55,-257.29"/>
<text xml:space="preserve" text-anchor="middle" x="229.95" y="-273.08" font-family="Arial" font-size="14.00" fill="#43516a">scheduled job</text>
</g>
<!-- n3 -->
<g id="node&#45;3" class="node">
<title>n3</title>
<polygon fill="#ffffff" stroke="#a3afbf" stroke-width="1.3" points="159.5,-144.32 0,-144.32 0,-102.56 159.5,-102.56 159.5,-144.32"/>
<text xml:space="preserve" text-anchor="middle" x="79.75" y="-118.04" font-family="Arial" font-size="18.00">Evidence + state</text>
</g>
<!-- n2&#45;&gt;n3 -->
<g id="edge&#45;2" class="edge">
<title>n2&#45;&gt;n3</title>
<path fill="none" stroke="#56657a" stroke-width="1.3" d="M120.16,-207.97C74.83,-196.37 23.03,-183.12 23.03,-183.12 23.03,-183.12 23.03,-166.32 23.03,-166.32 23.03,-166.32 32.87,-159.05 44.36,-150.57"/>
<polygon fill="#56657a" stroke="#56657a" stroke-width="1.3" points="45.7,-153.06 50.47,-146.06 42.37,-148.56 45.7,-153.06"/>
<text xml:space="preserve" text-anchor="middle" x="84.89" y="-170.52" font-family="Arial" font-size="14.00" fill="#43516a">read or persist state</text>
</g>
<!-- n4 -->
<g id="node&#45;4" class="node">
<title>n4</title>
<polygon fill="#ffffff" stroke="#a3afbf" stroke-width="1.3" points="401.5,-144.32 244.01,-144.32 244.01,-102.56 401.5,-102.56 401.5,-144.32"/>
<text xml:space="preserve" text-anchor="middle" x="322.75" y="-118.04" font-family="Arial" font-size="18.00">Verify + approve</text>
</g>
<!-- n2&#45;&gt;n4 -->
<g id="edge&#45;4" class="edge">
<title>n2&#45;&gt;n4</title>
<path fill="none" stroke="#56657a" stroke-width="1.3" d="M225.82,-204.55C246.12,-193.92 266.75,-183.12 266.75,-183.12 266.75,-183.12 281.99,-167.15 296.57,-151.87"/>
<polygon fill="#56657a" stroke="#56657a" stroke-width="1.3" points="298.31,-154.11 301.81,-146.39 294.26,-150.24 298.31,-154.11"/>
<text xml:space="preserve" text-anchor="middle" x="331.19" y="-170.52" font-family="Arial" font-size="14.00" fill="#43516a">candidate result</text>
</g>
<!-- n3&#45;&gt;n2 -->
<g id="edge&#45;3" class="edge">
<title>n3&#45;&gt;n2</title>
<path fill="none" stroke="#56657a" stroke-width="1.3" d="M114.42,-144.89C132.44,-155.52 150.75,-166.32 150.75,-166.32 150.75,-166.32 160.03,-181.44 169.16,-196.33"/>
<polygon fill="#56657a" stroke="#56657a" stroke-width="1.3" points="166.56,-197.44 173.13,-202.8 171.34,-194.52 166.56,-197.44"/>
<text xml:space="preserve" text-anchor="middle" x="209.82" y="-170.52" font-family="Arial" font-size="14.00" fill="#43516a">versioned result</text>
</g>
<!-- n5 -->
<g id="node&#45;5" class="node">
<title>n5</title>
<polygon fill="#ffffff" stroke="#a3afbf" stroke-width="1.3" points="375.72,-41.76 269.78,-41.76 269.78,0 375.72,0 375.72,-41.76"/>
<text xml:space="preserve" text-anchor="middle" x="322.75" y="-15.48" font-family="Arial" font-size="18.00">Telemetry</text>
</g>
<!-- n4&#45;&gt;n5 -->
<g id="edge&#45;5" class="edge">
<title>n4&#45;&gt;n5</title>
<path fill="none" stroke="#56657a" stroke-width="1.3" d="M322.75,-102.09C322.75,-87.64 322.75,-68.01 322.75,-51.78"/>
<polygon fill="#56657a" stroke="#56657a" stroke-width="1.3" points="325.55,-52.17 322.75,-44.17 319.95,-52.17 325.55,-52.17"/>
<text xml:space="preserve" text-anchor="middle" x="371.39" y="-67.96" font-family="Arial" font-size="14.00" fill="#43516a">record outcome</text>
</g>
</g>
</svg>
